<?xml version="1.0" standalone="no"?>
<!DOCTYPE svg PUBLIC "-//W3C//DTD SVG 20010904//EN"
 "http://www.w3.org/TR/2001/REC-SVG-20010904/DTD/svg10.dtd">
<svg version="1.0" xmlns="http://www.w3.org/2000/svg"
 width="512.000000pt" height="512.000000pt" viewBox="0 0 512.000000 512.000000"
 preserveAspectRatio="xMidYMid meet">

<g transform="translate(0.000000,512.000000) scale(0.100000,-0.100000)"
fill="#000000" stroke="none">
<path d="M410 5109 c-68 -13 -131 -39 -124 -51 5 -7 2 -8 -5 -4 -14 9 -72 -27
-131 -81 -38 -33 -55 -63 -27 -47 7 4 9 3 4 -2 -5 -5 -14 -9 -20 -9 -22 0 -87
-146 -97 -220 -6 -43 -10 -859 -10 -2150 0 -1747 3 -2091 14 -2146 41 -193
192 -344 385 -385 99 -21 4223 -21 4322 0 193 41 344 192 385 385 11 55 14
399 14 2146 0 1304 -4 2105 -10 2148 -11 72 -61 197 -80 197 -6 0 -9 4 -5 9 3
5 -5 17 -17 25 -12 9 -18 16 -13 16 5 0 -4 13 -20 30 -16 16 -31 28 -33 25 -2
-2 -12 4 -21 15 -29 34 -129 81 -203 95 -62 12 -398 14 -2168 13 -1152 0
-2115 -4 -2140 -9z m3861 -659 c11 0 33 -7 49 -15 16 -8 30 -11 33 -7 2 4 2 2
1 -5 -2 -6 8 -19 21 -27 13 -9 37 -37 52 -63 l28 -48 3 -925 c2 -690 0 -936
-9 -968 -17 -60 -60 -116 -116 -149 l-48 -28 -610 0 -610 0 -41 22 c-55 29
-109 93 -123 146 -9 31 -11 292 -9 977 l3 935 27 41 c15 23 24 45 20 50 -4 4
-2 4 4 1 7 -4 18 0 25 9 7 8 31 25 53 37 40 22 49 22 631 27 325 3 592 2 593
-2 2 -5 13 -8 23 -8z m-2197 -10 c30 -12 60 -27 66 -35 7 -8 17 -12 24 -8 6 3
8 3 4 -2 -4 -4 3 -22 16 -39 13 -17 28 -46 35 -65 8 -25 11 -455 11 -1600 0
-1554 -1 -1566 -21 -1611 -25 -55 -62 -95 -114 -123 -40 -22 -47 -22 -629 -25
-669 -3 -654 -4 -732 73 -79 80 -74 -43 -74 1690 0 1711 -4 1605 67 1680 20
22 36 45 34 50 -1 6 0 7 4 4 3 -4 27 2 53 12 44 17 88 18 624 19 557 0 579 -1
632 -20z"/>
</g>
</svg>
